<?xml version="1.0" encoding="utf-8"?>
<!-- Generator: Adobe Illustrator 17.0.0, SVG Export Plug-In . SVG Version: 6.00 Build 0)  -->
<!DOCTYPE svg PUBLIC "-//W3C//DTD SVG 1.1//EN" "http://www.w3.org/Graphics/SVG/1.1/DTD/svg11.dtd">
<svg version="1.1" id="ed1cb2e3-3a27-4e4b-8afb-5f229a593dd4"
	 xmlns="http://www.w3.org/2000/svg" xmlns:xlink="http://www.w3.org/1999/xlink" x="0px" y="0px" width="411.657px"
	 height="420.994px" viewBox="0 0 411.657 420.994" enable-background="new 0 0 411.657 420.994" xml:space="preserve">
<circle fill="#EEEEEE" cx="207.883" cy="203.215" r="177.921"/>
<path fill="#F2F2F2" d="M317.733,147.554c-1.969,21.696-7.579,44.574-16.377,66.647c-10.88,27.297-25.745,51.34-42.988,69.53
	l-0.957-0.834c17.16-18.102,31.957-42.039,42.791-69.224c9.792-24.566,15.616-50.13,16.85-73.918l1.223,0.205
	C318.146,142.472,317.965,145.004,317.733,147.554z"/>
<path fill="#F2F2F2" d="M325.576,273.562c-24.219,38.531-53.602,66.061-82.736,77.519L242.25,350
	c28.933-11.379,58.144-38.768,82.252-77.123L325.576,273.562z"/>
<path fill="#F2F2F2" d="M317.146,174.567c-1.969,21.696-7.579,44.574-16.377,66.647c-10.88,27.297-25.745,51.34-42.988,69.53
	l-0.957-0.834c17.16-18.102,31.957-42.039,42.791-69.224c9.792-24.566,15.616-50.13,16.85-73.918l1.223,0.205
	C317.558,169.485,317.377,172.016,317.146,174.567z"/>
<path fill="#E6E6E6" d="M45.257,230.268H29.367c-0.688,0.001-1.338-0.312-1.766-0.851c-0.422-0.525-0.581-1.215-0.431-1.871
	c1.513-6.678,1.418-13.62-0.277-20.254c-0.219-0.894,0.127-1.831,0.874-2.367c8.171-5.877,14.606-5.706,19.126,0.508
	c0.204,0.283,0.339,0.61,0.395,0.954c1.208,7.261,1.275,14.666,0.198,21.947C47.331,229.445,46.379,230.271,45.257,230.268z"/>
<path fill="#FFFFFF" d="M40.331,214.355h-5.466c-0.629,0-1.14-0.51-1.14-1.14c0-0.629,0.51-1.14,1.14-1.14h5.466
	c0.629,0.002,1.138,0.514,1.136,1.144C41.465,213.845,40.957,214.352,40.331,214.355L40.331,214.355z"/>
<path fill="#FFFFFF" d="M40.331,218.352h-5.466c-0.629,0-1.14-0.51-1.14-1.14s0.51-1.14,1.14-1.14h5.466
	c0.629,0.002,1.138,0.514,1.136,1.144C41.465,217.842,40.957,218.35,40.331,218.352L40.331,218.352z"/>
<path fill="#FFFFFF" d="M40.331,222.349h-5.466c-0.629,0-1.14-0.51-1.14-1.14c0-0.629,0.51-1.14,1.14-1.14h5.466
	c0.629,0.002,1.138,0.514,1.136,1.144C41.465,221.839,40.957,222.347,40.331,222.349L40.331,222.349z"/>
<path fill="#E6E6E6" d="M334.052,301.217h-15.891c-0.688,0.001-1.338-0.312-1.766-0.851c-0.422-0.525-0.581-1.215-0.431-1.871
	c1.513-6.678,1.418-13.62-0.277-20.254c-0.219-0.894,0.127-1.831,0.874-2.367c8.171-5.877,14.606-5.706,19.126,0.508
	c0.204,0.283,0.339,0.61,0.395,0.954c1.208,7.261,1.275,14.666,0.198,21.947C336.126,300.394,335.174,301.22,334.052,301.217z"/>
<path fill="#FFFFFF" d="M329.125,285.304h-5.466c-0.629-0.002-1.138-0.514-1.136-1.144c0.002-0.626,0.509-1.134,1.136-1.136h5.466
	c0.629,0.001,1.139,0.512,1.138,1.141C330.263,284.794,329.754,285.303,329.125,285.304L329.125,285.304z"/>
<path fill="#FFFFFF" d="M329.125,289.301h-5.466c-0.629-0.002-1.138-0.514-1.136-1.144c0.002-0.626,0.509-1.134,1.136-1.136h5.466
	c0.629,0.001,1.139,0.512,1.138,1.141C330.263,288.791,329.754,289.3,329.125,289.301L329.125,289.301z"/>
<path fill="#FFFFFF" d="M329.125,293.298h-5.466c-0.629-0.002-1.138-0.514-1.136-1.144c0.002-0.626,0.509-1.134,1.136-1.136h5.466
	c0.629,0.001,1.139,0.512,1.138,1.141C330.263,292.788,329.754,293.297,329.125,293.298L329.125,293.298z"/>
<path fill="#CCCCCC" d="M394.181,398.402c0.001,0.327-0.264,0.594-0.591,0.595c-0.001,0-0.002,0-0.004,0H15.711
	c-0.328,0-0.595-0.266-0.595-0.595c0-0.328,0.266-0.595,0.595-0.595l0,0h377.876c0.327-0.001,0.594,0.264,0.595,0.591
	C394.181,398.4,394.181,398.401,394.181,398.402z"/>
<path fill="#F2F2F2" d="M114.797,361.998l-0.991-13.784c-6.492-3.245-13.678-4.857-20.935-4.695
	c10.209,7.891,9.391,23.662,16.461,34.455c4.519,6.785,11.878,11.146,20,11.852l8.496,4.888c1.967-13-1.857-26.209-10.465-36.147
	c-2.413-2.731-5.161-5.148-8.178-7.193C117.328,356.706,114.797,361.998,114.797,361.998z"/>
<path fill="#F2F2F2" d="M294.5,363.997l0.991-13.784c6.492-3.245,13.678-4.857,20.935-4.695
	c-10.209,7.891-9.391,23.662-16.461,34.455c-4.519,6.785-11.878,11.146-20,11.852l-8.496,4.888
	c-1.967-13,1.857-26.209,10.465-36.147c2.413-2.731,5.161-5.148,8.178-7.193C291.969,358.705,294.5,363.997,294.5,363.997z"/>
<circle fill="#F03F37" cx="200.152" cy="198.947" r="9.493"/>
<path fill="#FFFFFF" d="M205.025,194.991c-0.297-0.283-0.763-0.283-1.06,0c-2.014,1.607-3.824,3.455-5.387,5.503
	c-0.384-0.743-0.768-1.485-1.151-2.228c-0.443-0.857-1.737-0.1-1.294,0.757c0.561,1.086,1.123,2.173,1.684,3.259
	c0.218,0.357,0.685,0.47,1.042,0.252c0.103-0.063,0.189-0.149,0.252-0.252c1.666-2.347,3.657-4.444,5.914-6.23
	C205.315,195.757,205.315,195.284,205.025,194.991z"/>
<path fill="#A0616A" d="M157.674,225.867l-14.316-22.482l16.577-8.878l4.351,17.153l30.656,16.566
	c3.445-1.24,7.242,0.548,8.481,3.992s-0.548,7.242-3.992,8.481c-3.233,1.164-6.82-0.337-8.261-3.456L157.674,225.867z"/>
<path fill="#013954" d="M132.9,176.42c-4.498,6.604,11.487,30.61,11.487,30.61c0.779-1.679,8.223,17.171,9.469,16.057
	c3.544-3.165,9.091-11.98,12.174-12.373c1.763-0.225-4.09-12.73-4.09-12.73s-2.675-7.384-6.305-16.817
	c-1.985-5.459-6.629-9.52-12.304-10.76C143.331,170.407,137.398,169.816,132.9,176.42z"/>
<polygon fill="#A0616A" points="133.119,391.584 139.918,391.584 143.152,365.36 133.118,365.361 "/>
<path fill="#013954" d="M131.385,389.365l1.914,0l7.471-3.038l4.004,3.038h0.001c4.712,0,8.532,3.82,8.533,8.533v0.277
	l-21.922,0.001L131.385,389.365z"/>
<polygon fill="#A0616A" points="164.705,391.584 171.504,391.584 174.738,365.36 164.704,365.361 "/>
<path fill="#013954" d="M162.971,389.365l1.914,0l7.471-3.038l4.004,3.038h0.001c4.712,0,8.532,3.82,8.533,8.533v0.277
	l-21.922,0.001L162.971,389.365z"/>
<path fill="#013954" d="M167.648,248.217l-44.222,1.106c-8.399,4.562-8.526,14.435-5.774,26.158c0,0-0.929,6.967,0.929,8.825
	c1.858,1.858,2.787,1.858,1.858,5.109c-0.929,3.251,3.979,8.562,3.383,9.158c-0.596,0.596-1.99,3.848-1.99,3.848l4.645,26.476
	c0,0,3.251,45.985,4.18,46.914c0.929,0.929,1.858,0,0.929,2.322c-0.929,2.322-1.858,1.393-0.929,2.322
	c0.823,0.887,1.598,1.818,2.322,2.787h11.23c0,0,0.847-4.645,0.847-5.109s0.929-3.251,0.929-3.716c0-0.465-0.821-1.286-0.821-1.286
	c-0.284-0.944-0.475-1.914-0.572-2.895c0-0.929-2.787-36.695-2.787-36.695l5.574-46.45l13.47,45.521c0,0,0,39.947,0.929,40.876
	c0.929,0.929,0.929,0.464,0.465,2.322s-2.322,1.393-0.929,2.787c1.393,1.393,1.858-0.929,1.394,1.393l-0.464,2.322l13.935,0.199
	c0,0,1.858-3.915,0.929-5.309c-0.929-1.393-0.873-1.013,0.26-3.294s1.598-2.745,1.133-3.209s-0.464-2.935-0.464-2.935l-2.322-44.444
	c0,0-0.465-46.914-0.465-48.308c-0.035-0.717,0.097-1.432,0.386-2.09v-1.891l-1.779-6.702L167.648,248.217z"/>
<circle fill="#A0616A" cx="141.083" cy="142.524" r="13.74"/>
<path fill="#013954" d="M147.953,165.345c2.96,1.76,4.731,4.993,5.747,8.283c1.882,6.092,3.015,12.39,3.373,18.755l1.074,19.057
	l13.297,40.578c-11.524,9.751-54.841,2.216-54.841,2.216s-1.33-0.443,0-1.773s2.624-0.152,1.294-1.481s-0.413,0.152,0.03-1.178
	c0.443-1.33,0-0.443-0.443-0.886c-0.443-0.443,3.431-4.432,3.431-4.432l-3.546-23.292l-4.432-46.982
	c5.319-6.648,16.015-10.568,16.015-10.568l2.764-4.975l13.819,1.106L147.953,165.345z"/>
<path fill="#2F2E41" d="M152.41,135.224c1.068,0.796,1.859,1.908,2.262,3.178c0.155-2.075,0.165-4.158,0.029-6.235
	c-0.162-1.459-1.189-1.787-2.379-2.168c-1.074-0.344-2.289-0.732-2.616-2.148c-4.319-4.202-11.838-3.99-16.983-2.524
	c-2.831,0.806-4.461,1.843-4.606,2.45l-0.03,0.125l-0.115,0.057c-2.183,1.091-2.607,4.537-2.579,7.236
	c0.053,5.084,1.809,10.859,2.798,11.328c0.052,0.025,0.066,0.015,0.088-0.004l0,0c1.489-1.19,3.306,0.09,4.104,0.787
	c0.969-6.503,6.25-11.505,12.796-12.121c1.039-0.1,2.069-0.273,3.084-0.517c0.515-0.133,1.044-0.203,1.575-0.207
	C150.753,134.446,151.65,134.713,152.41,135.224z"/>
<path fill="#FFB8B8" d="M237.706,259.165l26.431-26.84l6.964-21.466l-11.206-4.533c-5.551,5.599-11.266,22.741-11.266,22.741
	l-18.04,24.212c-0.144,0.054-0.288,0.11-0.429,0.177c-2.667,1.259-3.808,4.442-2.549,7.108c1.259,2.667,4.442,3.808,7.108,2.549
	C236.302,262.366,237.418,260.891,237.706,259.165z"/>
<path fill="#F03F37" d="M256.838,208.782l14.172,4.1l0.053-0.01c5.209-1.011,9.33-9.668,11.869-16.752
	c1.733-4.848-0.585-10.211-5.304-12.27l0,0c-3.432-1.47-7.402-0.865-10.24,1.561l-7.066,6.084L256.838,208.782z"/>
<polygon fill="#FFB8B8" points="244.713,390.787 237.092,390.786 233.466,361.39 244.714,361.39 "/>
<path fill="#013954" d="M246.657,388.299l-2.145,0l-8.375-3.406l-4.489,3.405h-0.001c-5.283,0-9.565,4.282-9.565,9.565v0.311
	l24.575,0.001L246.657,388.299z"/>
<polygon fill="#FFB8B8" points="278.531,390.787 270.909,390.786 267.284,361.39 278.532,361.39 "/>
<path fill="#013954" d="M280.475,388.299l-2.145,0l-8.375-3.406l-4.489,3.405h-0.001c-5.283,0-9.565,4.282-9.565,9.565v0.311
	l24.575,0.001L280.475,388.299z"/>
<path fill="#013954" d="M290.152,264.164c0,0,0.89,10.679-1.335,20.913c-2.225,10.234-2.225,39.057-2.225,39.057l-4.895,56.166
	l-14.684-1.335l-4.005-93.888l-14.239,31.593l1.335,4.45l-1.778,1.112c0,0,1.333,8.677,0.443,8.677c-0.89,0-3.115,1.335-3.115,1.335
	l1.78,45.832l-15.129-0.445l-5.34-64.52l5.785-36.932l0.445-7.119l2.002,0.082l1.02-2.975l1.873-5.117L290.152,264.164z"/>
<path fill="#F03F37" d="M290.921,266.407l0.079-0.111c4.235-5.93-2.135-20.179-3.095-22.244l4.047-1.313l-0.911-7.746l-0.432-3.453
	l3.093-3.093l0.009-0.077l1.78-15.574l2.588-10.344c1.985-7.962-0.479-16.375-6.446-22.008l-5.982-5.64l-7.27-10.757h-11.723
	l-4.02,7.593c-8.042,1.859-13.606,9.201-13.221,17.446l0.911,19.913l-3.566,24.794l-0.002,4.487l-4.014,4.461l0.876,4.382
	l-3.055,1.309l-1.349,6.294c-0.558,0.737-4.242,5.649-4.242,6.992c0,0.202,0.149,0.396,0.468,0.613
	c2.511,1.7,16.388,5.166,22.53,2.708c6.542-2.616,32.55,1.308,32.812,1.348L290.921,266.407z"/>
<circle fill="#FFB8B8" cx="271.004" cy="145.048" r="15.526"/>
<path fill="#2F2E41" d="M269.517,160.826c2.405-0.025,4.803-0.254,7.168-0.687c2.342-0.539,7.508-4.535,8.917-6.895l0,0
	c1.046-1.754,1.674-4.466,2.017-6.432c0.936-5.263-0.404-10.676-3.687-14.895c-0.626-0.874-1.476-1.563-2.461-1.993
	c-0.087-0.031-0.177-0.059-0.267-0.082c-1.428-0.337-2.722-1.092-3.717-2.17c-0.193-0.218-0.402-0.422-0.624-0.61
	c-1.116-0.894-2.429-1.511-3.829-1.801c-2.263-0.543-5.499,0.138-9.62,2.026c-2.07,0.949-4.368,0.684-6.139,0.347
	c-0.202-0.034-0.407,0.042-0.538,0.2c-0.731,0.723-1.709,1.142-2.736,1.173c-0.629,0.044-1.267,0.933-2.036,2.09
	c-0.174,0.263-0.378,0.569-0.526,0.756l-0.03-0.351l-0.346,0.402c-1.78,2.066-1.547,5.184,0.519,6.964
	c0.555,0.478,1.21,0.827,1.917,1.021c0.638,0.152,1.289,0.239,1.944,0.259c0.397,0.025,0.808,0.052,1.203,0.11
	c2.578,0.459,4.726,2.239,5.655,4.687c0.389,1.002,1.517,1.5,2.519,1.111c0.157-0.061,0.306-0.142,0.443-0.242
	c0.814-0.668,1.903-0.896,2.916-0.609c0.434,0.227,0.777,0.596,0.971,1.046c0.235,0.501,0.613,0.92,1.087,1.204
	c1.616,0.781,1.82,4.422,1.326,7.474c-0.477,2.942-1.514,5.088-2.522,5.219c-0.776,0.101-0.864,0.158-0.916,0.297l-0.047,0.124
	l0.09,0.113C268.602,160.825,269.062,160.875,269.517,160.826z"/>
<path fill="#FFB8B8" d="M256.635,210.442l-7.463-9.509c-7.602,2.093-21.091,14.116-21.091,14.116l-27.701,12.021
	c-2.907-0.488-5.659,1.472-6.147,4.379c-0.488,2.907,1.472,5.659,4.379,6.147c1.886,0.317,3.798-0.4,5.011-1.879l36.288-10.124
	L256.635,210.442z"/>
<path fill="#F03F37" d="M254.847,212.616l11.776-13.127l0.654-9.301c0.248-3.726-1.64-7.27-4.87-9.143l0,0
	c-4.472-2.552-10.157-1.205-13.007,3.083c-4.161,6.271-8.637,14.749-6.334,19.53l0.023,0.048L254.847,212.616z"/>
<path fill="#E6E6E6" d="M146.312,261.956l-30.605-15.674c-2.177-1.115-2.898-4.072-1.607-6.592l19.955-38.964
	c1.291-2.52,4.112-3.663,6.289-2.548l30.605,15.674c2.177,1.115,2.898,4.072,1.607,6.592l-19.955,38.964
	C151.31,261.928,148.489,263.071,146.312,261.956z"/>
<path fill="#FFFFFF" d="M141.083,254.75l-20.794-10.649c-2.039-1.044-2.714-3.814-1.506-6.174l16.579-32.371
	c1.209-2.36,3.851-3.431,5.89-2.386l25.115,12.862c2.039,1.044,2.714,3.814,1.505,6.174l-9.006,17.586
	C153.482,250.304,150.165,259.402,141.083,254.75z"/>
<path fill="#F03F37" d="M151.364,237.073l-18.418-9.433c-0.518-0.369-0.639-1.088-0.27-1.607c0.295-0.414,0.827-0.586,1.309-0.422
	l18.418,9.433c0.518,0.369,0.639,1.088,0.27,1.607C152.377,237.065,151.845,237.236,151.364,237.073z"/>
<path fill="#F03F37" d="M135.097,233.801l-4.203-2.153c-0.518-0.369-0.639-1.089-0.27-1.607c0.295-0.414,0.827-0.586,1.309-0.422
	l4.203,2.153c0.518,0.369,0.639,1.089,0.27,1.607C136.11,233.793,135.578,233.965,135.097,233.801z"/>
<path fill="#F03F37" d="M140.488,241.622l-11.647-5.965c-0.518-0.369-0.639-1.089-0.27-1.607c0.295-0.414,0.827-0.586,1.309-0.422
	l11.647,5.965c0.518,0.369,0.639,1.089,0.27,1.607C141.501,241.614,140.969,241.786,140.488,241.622L140.488,241.622z"/>
<path fill="#F03F37" d="M158.652,222.842l-18.418-9.433c-0.518-0.369-0.639-1.088-0.27-1.607c0.295-0.414,0.827-0.586,1.309-0.422
	l18.418,9.433c0.518,0.369,0.639,1.088,0.27,1.607C159.666,222.834,159.134,223.006,158.652,222.842z"/>
<path fill="#F03F37" d="M142.385,219.57l-4.203-2.153c-0.518-0.369-0.639-1.089-0.27-1.607c0.295-0.414,0.827-0.586,1.309-0.422
	l4.203,2.153c0.518,0.369,0.639,1.089,0.27,1.607C143.398,219.562,142.866,219.734,142.385,219.57z"/>
<path fill="#F03F37" d="M147.776,227.391l-11.647-5.965c-0.518-0.369-0.639-1.089-0.27-1.607c0.295-0.414,0.827-0.586,1.309-0.422
	l11.647,5.965c0.518,0.369,0.639,1.089,0.27,1.607C148.79,227.383,148.258,227.555,147.776,227.391L147.776,227.391z"/>
<path fill="#A0616A" d="M120.951,228.034l-6.914-25.74l18.477-3.498l-0.994,17.668l24.277,24.997
	c3.658-0.15,6.744,2.694,6.894,6.352c0.15,3.658-2.694,6.744-6.352,6.894c-3.433,0.14-6.405-2.366-6.845-5.774L120.951,228.034z"/>
<path fill="#013954" d="M112.146,173.434c-6.272,4.951,1.778,32.646,1.778,32.646c1.246-1.368,2.695,18.846,4.218,18.158
	c4.329-1.956,12.265-8.702,15.324-8.152c1.75,0.314-0.083-13.371-0.083-13.371s-0.337-7.847-0.971-17.934
	c-0.257-5.803-3.469-11.07-8.511-13.955C123.901,170.826,118.418,168.482,112.146,173.434z"/>
<path fill="#E6E6E6" d="M216.5,285.167l-16.701-7.886c-0.724-0.34-1.252-0.992-1.434-1.771c-0.183-0.761-0.008-1.565,0.476-2.181
	c4.838-6.183,8.16-13.413,9.699-21.112c0.24-1.216,1.305-2.092,2.544-2.094c8.518,0.029,14.884,3.139,18.921,9.243
	c0.431,0.643,0.557,1.442,0.344,2.186c-2.337,8.056-5.894,15.707-10.547,22.687C219.088,285.331,217.677,285.727,216.5,285.167z"/>
<path fill="#FFFFFF" d="M221.413,274.106l-12.77-6.03c-0.662-0.312-0.945-1.102-0.632-1.764c0.312-0.662,1.102-0.945,1.764-0.632
	l0,0l12.77,6.03c0.662,0.312,0.945,1.102,0.632,1.764S222.074,274.418,221.413,274.106L221.413,274.106z"/>
<path fill="#FFFFFF" d="M223.396,269.904l-12.77-6.03c-0.662-0.312-0.945-1.102-0.632-1.764c0.312-0.662,1.102-0.945,1.764-0.632
	l0,0l12.77,6.03c0.662,0.312,0.945,1.102,0.632,1.764C224.848,269.934,224.058,270.217,223.396,269.904L223.396,269.904
	L223.396,269.904z"/>
<path fill="#F2F2F2" d="M206.333,138.027l-1.189,0.13c-5.3-20.827-15.573-35.256-29.71-41.727
	c-17.971-8.226-40.193-2.702-62.573,15.554c-22.493,18.349-42.406,47.333-56.069,81.613l-1.153-0.528
	c13.723-34.43,33.738-63.554,56.357-82.005c22.733-18.544,45.408-24.109,63.849-15.668
	C190.388,102.053,200.93,116.794,206.333,138.027z"/>
<path fill="#F2F2F2" d="M75.189,165.152c-3.109,6.549-6.065,13.333-8.788,20.165c-15.669,39.313-23.61,79.462-22.961,116.109
	l-1.225-0.131c-0.65-36.783,7.314-77.071,23.032-116.506c2.731-6.851,5.696-13.654,8.814-20.222L75.189,165.152z"/>
<path fill="#F2F2F2" d="M74.601,192.164c-3.109,6.549-6.065,13.333-8.788,20.165c-15.669,39.313-23.61,79.462-22.961,116.109
	l-1.225-0.131c-0.65-36.783,7.314-77.071,23.032-116.506c2.731-6.851,5.696-13.654,8.814-20.222L74.601,192.164z"/>
<ellipse transform="matrix(-0.8326 -0.5539 0.5539 -0.8326 -41.6995 385.7301)" fill="#CCCCCC" cx="37.446" cy="199.167" rx="5.094" ry="4.425"/>
<ellipse transform="matrix(-0.8326 -0.5539 0.5539 -0.8326 445.8659 680.0665)" fill="#CCCCCC" cx="325.712" cy="272.649" rx="5.094" ry="4.425"/>
</svg>
