<?xml version="1.0" encoding="utf-8"?>
<!-- Generator: Adobe Illustrator 17.0.0, SVG Export Plug-In . SVG Version: 6.00 Build 0)  -->
<!DOCTYPE svg PUBLIC "-//W3C//DTD SVG 1.1//EN" "http://www.w3.org/Graphics/SVG/1.1/DTD/svg11.dtd">
<svg version="1.1" id="b971039f-e28c-4163-8848-8871ac265cf4"
	 xmlns="http://www.w3.org/2000/svg" xmlns:xlink="http://www.w3.org/1999/xlink" x="0px" y="0px" width="511.389px"
	 height="489.334px" viewBox="0 0 511.389 489.334" enable-background="new 0 0 511.389 489.334" xml:space="preserve">
<circle fill="#EEEEEE" cx="242.28" cy="234.795" r="208.338"/>
<path fill="#013954" d="M251.089,185.434h-1.96v-53.689c0-17.162-13.912-31.074-31.074-31.074H104.307
	c-17.162,0-31.074,13.912-31.074,31.074v0v294.543c0,17.162,13.912,31.074,31.074,31.074l0,0h113.748
	c17.162,0,31.074-13.912,31.074-31.074c0,0,0,0,0,0V223.651h1.96V185.434z"/>
<path fill="#FFFFFF" d="M219.075,109.49h-14.848c2.3,5.638-0.407,12.073-6.045,14.372c-1.322,0.539-2.736,0.816-4.163,0.817h-65.165
	c-6.089,0-11.025-4.937-11.024-11.026c0-1.427,0.277-2.841,0.817-4.163h-13.868c-12.816,0-23.206,10.389-23.206,23.206v294.111
	c0,12.816,10.389,23.206,23.206,23.206l0,0h114.296c12.816,0,23.206-10.389,23.206-23.206V132.696
	C242.28,119.88,231.891,109.49,219.075,109.49L219.075,109.49L219.075,109.49z M216.58,245.93c-0.01,3.316-2.695,6.001-6.011,6.011
	h-29.052c-3.316-0.01-6.001-2.695-6.011-6.011v-1.503c0.01-3.316,2.695-6.001,6.011-6.011h29.052
	c3.316,0.01,6.001,2.695,6.011,6.011L216.58,245.93z M219.836,219.383c-0.01,3.316-2.695,6.001-6.011,6.011H109.639
	c-3.316-0.01-6.001-2.695-6.011-6.011v-1.503c0.01-3.316,2.695-6.001,6.011-6.011h104.186c3.316,0.01,6.001,2.695,6.011,6.011
	L219.836,219.383z M219.836,192.835c-0.01,3.316-2.695,6.001-6.011,6.011H109.639c-3.316-0.01-6.001-2.695-6.011-6.011v-1.503
	c0.01-3.316,2.695-6.001,6.011-6.011h104.186c3.316,0.01,6.001,2.695,6.011,6.011L219.836,192.835z M219.836,166.288
	c-0.01,3.316-2.695,6.001-6.011,6.011H109.639c-3.316-0.01-6.001-2.695-6.011-6.011v-1.503c0.01-3.316,2.695-6.001,6.011-6.011
	h104.186c3.316,0.01,6.001,2.695,6.011,6.011L219.836,166.288z"/>
<circle fill="#FFFFFF" cx="111.893" cy="218.882" r="3.506"/>
<circle fill="#FFFFFF" cx="123.414" cy="218.882" r="3.506"/>
<circle fill="#FFFFFF" cx="134.935" cy="218.882" r="3.506"/>
<circle fill="#FFFFFF" cx="146.455" cy="218.882" r="3.506"/>
<circle fill="#FFFFFF" cx="184.022" cy="245.429" r="3.506"/>
<circle fill="#FFFFFF" cx="195.543" cy="245.429" r="3.506"/>
<circle fill="#FFFFFF" cx="207.063" cy="245.429" r="3.506"/>
<path fill="#F03F37" d="M220.642,290.859H101.821c-5.813,0-10.525,4.712-10.525,10.525v57.892c0,5.813,4.712,10.525,10.525,10.525
	h118.821c5.813,0,10.525-4.712,10.525-10.525v-57.892C231.167,295.572,226.455,290.859,220.642,290.859L220.642,290.859z
	 M98.881,298.039c0.235-0.042,5.799-0.989,10.406,1.783c4.607,2.772,6.377,8.131,6.45,8.358l0.186,0.578l-0.598,0.106
	c-0.853,0.133-1.715,0.196-2.578,0.189c-2.738,0.052-5.441-0.629-7.827-1.973c-4.607-2.771-6.377-8.131-6.45-8.358l-0.186-0.578
	L98.881,298.039z M124.674,351.788h-21.193c-3.219-0.004-5.825-2.616-5.821-5.835c0.004-3.214,2.608-5.818,5.821-5.822h21.193
	c3.219,0.004,5.825,2.616,5.821,5.835C130.492,349.18,127.888,351.785,124.674,351.788z M221.101,350.729
	c-0.01,3.507-2.851,6.348-6.358,6.358h-15.895c-3.507-0.01-6.348-2.851-6.358-6.358v-9.537c0.01-3.507,2.851-6.348,6.358-6.358
	h15.895c3.507,0.01,6.348,2.851,6.358,6.358L221.101,350.729z"/>
<path fill="#3F3D56" d="M203.973,348.763h-6.391c-0.95,0-1.721,0.77-1.721,1.721c0,0.95,0.77,1.721,1.721,1.721l0,0h6.391
	c0.95,0,1.72-0.771,1.72-1.721C205.694,349.534,204.923,348.764,203.973,348.763z"/>
<path fill="#3F3D56" d="M215.772,348.763h-6.391c-0.95,0-1.721,0.77-1.721,1.721c0,0.95,0.77,1.721,1.721,1.721h6.391
	c0.95,0,1.72-0.771,1.72-1.721C217.492,349.534,216.722,348.764,215.772,348.763z"/>
<path fill="#3F3D56" d="M203.972,343.906h-6.391c-0.95,0-1.721,0.77-1.721,1.721c0,0.95,0.77,1.721,1.721,1.721l0,0h6.391
	c0.95,0,1.721-0.77,1.721-1.721C205.693,344.677,204.923,343.906,203.972,343.906z"/>
<path fill="#3F3D56" d="M215.771,343.906h-6.391c-0.95,0-1.721,0.77-1.721,1.721c0,0.95,0.77,1.721,1.721,1.721h6.391
	c0.95,0,1.721-0.77,1.721-1.721C217.491,344.677,216.721,343.906,215.771,343.906L215.771,343.906z"/>
<path fill="#3F3D56" d="M203.972,339.148h-6.391c-0.95,0-1.721,0.77-1.721,1.721s0.77,1.721,1.721,1.721l0,0h6.391
	c0.95,0,1.721-0.77,1.721-1.721S204.923,339.148,203.972,339.148z"/>
<path fill="#3F3D56" d="M215.771,339.148h-6.391c-0.95,0-1.721,0.77-1.721,1.721s0.77,1.721,1.721,1.721h6.391
	c0.95,0,1.721-0.77,1.721-1.721S216.721,339.148,215.771,339.148L215.771,339.148z"/>
<rect x="287.441" y="312.667" fill="#E6E6E6" width="15.498" height="15.498"/>
<path fill="#3F3D56" d="M269.175,322.077h25.462v25.462h-25.462V322.077z M293.53,323.184h-23.248v23.248h23.248V323.184z"/>
<rect x="17.879" y="184.805" fill="#E6E6E6" width="15.498" height="15.498"/>
<path fill="#3F3D56" d="M51.644,190.894H26.182v-25.462h25.462V190.894z M27.289,189.787h23.248v-23.248H27.289V189.787z"/>
<polygon fill="#FFB8B8" points="379.367,466.775 372.581,466.775 369.353,440.6 379.368,440.6 "/>
<path fill="#013954" d="M367.734,464.836h13.087l0,0v8.24l0,0h-21.327l0,0l0,0C359.494,468.525,363.183,464.836,367.734,464.836z"/>
<polygon fill="#FFB8B8" points="413.131,466.775 406.345,466.775 403.117,440.6 413.132,440.6 "/>
<path fill="#013954" d="M401.498,464.836h13.087l0,0v8.24l0,0h-21.327l0,0l0,0C393.258,468.525,396.947,464.836,401.498,464.836z"/>
<path fill="#FFB8B8" d="M345.325,373.168c-1.844-2.717-1.137-6.415,1.581-8.259c0.29-0.197,0.596-0.367,0.916-0.51l23.068-63.58
	l11.351,6.195l-26.339,60.76c1.143,3.098-0.441,6.535-3.539,7.679C349.772,376.408,346.862,375.464,345.325,373.168z"/>
<path fill="#FFB8B8" d="M409.665,385.115c-2.849-1.633-3.834-5.267-2.201-8.116c0.174-0.304,0.375-0.592,0.6-0.86l-7.146-67.257
	l12.918,0.59l2.97,66.156c2.386,2.283,2.469,6.067,0.187,8.453C415.082,386.077,412.053,386.505,409.665,385.115L409.665,385.115z"
	/>
<circle fill="#FFB8B8" cx="389.057" cy="275.447" r="13.595"/>
<path fill="#CCCCCC" d="M409.578,369.819h-40.986l0.049-0.319c0.074-0.477,7.305-47.845,1.971-63.342
	c-1.108-3.154,0.341-6.636,3.359-8.072h0c7.623-3.59,22.255-8.01,34.606,2.717c3.685,3.253,5.624,8.05,5.236,12.95L409.578,369.819z
	"/>
<path fill="#CCCCCC" d="M376.464,328.655l-18.452-3.744l8.649-20.497c1.079-4.141,5.311-6.622,9.451-5.543
	c4.127,1.076,6.609,5.284,5.552,9.416L376.464,328.655z"/>
<path fill="#CCCCCC" d="M400.097,335.606l-1.109-25.429c-0.841-4.78,1.895-9.299,6.104-10.038c4.21-0.736,8.32,2.579,9.165,7.395
	l4.17,23.761L400.097,335.606z"/>
<path fill="#013954" d="M408.215,366.774c6.595,25.117,7.314,57.05,5.535,91.883l-8.856-1.107l-16.052-66.422l-8.856,67.529
	l-9.963-0.553c-2.977-36.548-5.875-67.925-1.107-88.562L408.215,366.774z"/>
<path fill="#2F2E41" d="M398.015,285.953c-2.536,2.702-7.246,1.251-7.577-2.439c-0.026-0.287-0.024-0.575,0.006-0.861
	c0.171-1.635,1.115-3.119,0.889-4.845c-0.051-0.43-0.211-0.839-0.465-1.189c-2.021-2.706-6.765,1.21-8.673-1.239
	c-1.17-1.502,0.205-3.867-0.692-5.546c-1.185-2.216-4.693-1.123-6.893-2.336c-2.448-1.35-2.302-5.106-0.69-7.391
	c1.965-2.786,5.411-4.273,8.814-4.487c3.403-0.214,6.782,0.706,9.959,1.944c3.61,1.407,7.189,3.351,9.41,6.525
	c2.701,3.86,2.961,9.049,1.61,13.562C402.891,280.393,400.086,283.747,398.015,285.953z"/>
<path fill="#3F3D56" d="M491.202,473.74H280.313c-0.306,0-0.554-0.248-0.554-0.553c0-0.306,0.248-0.554,0.554-0.554h210.889
	c0.306,0,0.553,0.248,0.553,0.554C491.755,473.492,491.507,473.74,491.202,473.74z"/>
</svg>
