<?xml version="1.0" encoding="utf-8"?>
<!-- Generator: Adobe Illustrator 17.0.0, SVG Export Plug-In . SVG Version: 6.00 Build 0)  -->
<!DOCTYPE svg PUBLIC "-//W3C//DTD SVG 1.1//EN" "http://www.w3.org/Graphics/SVG/1.1/DTD/svg11.dtd">
<svg version="1.1" id="bfbb5b39-9b4a-43f6-b630-7b09a59f4f63"
	 xmlns="http://www.w3.org/2000/svg" xmlns:xlink="http://www.w3.org/1999/xlink" x="0px" y="0px" width="508px" height="498px"
	 viewBox="24.766 25.5 508 498" enable-background="new 24.766 25.5 508 498" xml:space="preserve">
<circle fill="#EEEEEE" cx="292.618" cy="258.953" r="208.338"/>
<title>mobile user</title>
<path fill="#F2F2F2" d="M119.36,298.979v13.301c11.631,0,21.06,9.429,21.06,21.06c0,11.631-9.429,21.06-21.06,21.06v13.301h68.723
	v-68.723H119.36z"/>
<circle fill="#F2F2F2" cx="119.36" cy="333.341" r="16.627"/>
<polygon fill="#F2F2F2" points="371.345,349.986 344.373,333.361 344.373,461.919 371.345,461.919 "/>
<polygon fill="#F2F2F2" points="302.991,461.919 329.963,461.919 329.963,324.479 302.991,307.854 "/>
<polygon fill="#F2F2F2" points="288.581,298.972 153.722,215.846 153.722,290.851 196.951,290.851 196.951,377.309 153.722,377.309 
	153.722,461.919 288.581,461.919 "/>
<polygon fill="#F2F2F2" points="385.754,358.868 385.754,461.919 399.795,461.919 437.851,390.979 "/>
<path fill="#013954" d="M438.152,412.738c-22.383,16.731-28.694,46.126-28.694,46.126s29.979,2.268,52.362-14.463
	s28.694-46.126,28.694-46.126S460.534,396.007,438.152,412.738z"/>
<path fill="#F03F37" d="M409.475,458.581c0,0-0.329-0.183-0.923-0.549c-0.474-0.292-1.125-0.698-1.911-1.218
	c-7.034-4.635-25.254-18.266-32.728-39.299c-9.35-26.334,1.691-54.298,1.691-54.298s24.085,13.54,34.316,37.86
	c0.446,1.047,0.858,2.116,1.247,3.206c8.136,22.913,0.834,47.06-1.2,52.945C409.66,458.11,409.475,458.581,409.475,458.581z"/>
<path fill="#3F3D56" d="M409.584,459.412l-0.343-0.249c-0.245-0.177-24.537-18.024-30.779-45.076
	c-6.242-27.052,7.774-53.738,7.917-54.005l0.2-0.374l0.343,0.249c0.245,0.177,24.538,18.024,30.779,45.076l0,0
	c6.242,27.052-7.774,53.738-7.917,54.005L409.584,459.412z M386.833,360.816c-1.685,3.361-13.424,28.091-7.652,53.105
	c5.772,25.014,27.16,42.1,30.146,44.383c1.685-3.361,13.424-28.091,7.652-53.105l0,0C411.208,380.185,389.82,363.1,386.833,360.816z
	"/>
<path opacity="0.1" enable-background="new    " d="M409.966,457.228c-0.546,0.318-1.023,0.585-1.414,0.804
	c-0.863,0.471-1.341,0.709-1.341,0.709s-0.226-0.681-0.57-1.926c-1.895-6.815-7.32-30.567,1.76-52.382
	c0.477-1.143,0.984-2.261,1.519-3.355c0.446,1.047,0.858,2.116,1.247,3.206C419.302,427.196,411.999,451.342,409.966,457.228z"/>
<path fill="#F03F37" d="M447.495,420.568c-10.734,25.801-37.685,39.125-37.685,39.125s-9.547-28.508,1.187-54.31
	c10.734-25.801,37.685-39.125,37.685-39.125S458.229,394.766,447.495,420.568z"/>
<rect x="379.634" y="412.802" transform="matrix(-0.3868 0.9221 -0.9221 -0.3868 976.3373 177.1454)" fill="#3F3D56" width="99.279" height="0.739"/>
<path fill="#3F3D56" d="M486.437,467.274c0,3.46-19.903,6.625-52.81,9.054c-5.983,0.44-12.397,0.856-19.196,1.248
	c-5.878,0.338-12.037,0.655-18.477,0.952c-6.241,0.283-12.721,0.547-19.439,0.79c-21.221,0.772-44.678,1.326-69.599,1.603
	c-6.047,0.066-12.176,0.119-18.387,0.157c-6.466,0.036-13.007,0.054-19.623,0.054c-120.14,0-217.531-6.203-217.531-13.859
	s97.391-13.859,217.531-13.859c51.721,0,99.222,1.151,136.554,3.068c1.374,0.072,2.734,0.143,4.081,0.211
	c0.008,0.005,0.017,0.007,0.026,0.006C456.593,459.244,486.437,463.036,486.437,467.274z"/>
<path opacity="0.15" enable-background="new    " d="M486.437,467.274c0,3.46-19.903,6.625-52.81,9.054
	c-5.983,0.44-12.397,0.856-19.196,1.248c-5.878,0.338-12.037,0.655-18.477,0.952c-6.241,0.283-12.721,0.547-19.439,0.79
	c-21.221,0.772-44.678,1.326-69.599,1.603c-6.047,0.066-12.176,0.119-18.387,0.157c-6.466,0.036-13.007,0.054-19.623,0.054
	c-120.14,0-217.531-6.203-217.531-13.859s97.391-13.859,217.531-13.859c51.721,0,99.222,1.151,136.554,3.068
	c1.374,0.072,2.734,0.143,4.081,0.211c0.008,0.005,0.017,0.007,0.026,0.006C456.593,459.244,486.437,463.036,486.437,467.274z"/>
<path fill="#013954" d="M469.718,464.834c0,2.893-18.555,5.538-49.233,7.571c-5.575,0.366-11.557,0.713-17.894,1.042
	c-5.479,0.281-11.221,0.546-17.225,0.794c-5.819,0.24-11.86,0.461-18.123,0.661c-19.786,0.647-41.655,1.108-64.888,1.341
	c-5.635,0.055-11.348,0.099-17.14,0.129c-6.03,0.033-12.128,0.049-18.293,0.048c-112.004,0-202.799-5.187-202.799-11.587
	c0-6.399,90.796-11.587,202.799-11.587c24.766,0,48.494,0.255,70.434,0.72h0.055c20.75,0.44,39.9,1.068,56.815,1.847
	c1.282,0.059,2.551,0.117,3.806,0.174c0.007,0.006,0.017,0.008,0.026,0.007c7.748,0.377,14.997,0.783,21.677,1.219
	c0.074,0.004,0.148,0.011,0.222,0.015C450.953,459.266,469.718,461.923,469.718,464.834z"/>
<path opacity="0.1" enable-background="new    " d="M419.735,457.216c-2.745,17.85-20.055,11.868-41.001,11.868
	c-22.128,0-40.196,6.676-41.322-15.115c20.75,0.44,39.9,1.068,56.815,1.847c1.282,0.059,2.551,0.117,3.806,0.174
	c0.007,0.006,0.017,0.008,0.026,0.007C405.806,456.373,413.055,456.78,419.735,457.216z"/>
<path fill="#F03F37" d="M168.603,451.786c0,6.435-3.825,8.682-8.544,8.682c-0.109,0-0.219-0.002-0.327-0.004
	c-0.219-0.005-0.436-0.015-0.65-0.03c-4.259-0.301-7.568-2.664-7.568-8.648c0-6.192,7.913-14.007,8.509-14.586l0.001-0.001
	c0.023-0.023,0.035-0.034,0.035-0.034S168.603,445.351,168.603,451.786z"/>
<path fill="#3F3D56" d="M159.747,459.483l3.125-4.366l-3.133,4.846l-0.008,0.501c-0.219-0.005-0.436-0.015-0.65-0.03l0.337-6.438
	l-0.002-0.05l0.005-0.009l0.032-0.609l-3.141-4.858l3.15,4.402l0.008,0.129l0.254-4.864l-2.689-5.02l2.722,4.166l0.265-10.085
	l0.001-0.035v0.034l-0.044,7.952l2.677-3.153l-2.688,3.838l-0.071,4.355l2.5-4.18l-2.51,4.821l-0.039,2.421l3.628-5.818
	l-3.642,6.662L159.747,459.483z"/>
<path fill="#013954" d="M337.353,447.285c0-24.487,18.527-44.337,41.382-44.337c22.854,0,41.382,19.851,41.382,44.337
	c0,24.487-18.527,17.365-41.382,17.365C355.88,464.651,337.353,471.772,337.353,447.285z"/>
<rect x="107.309" y="418.074" fill="#3F3D56" width="0.739" height="49.946"/>
<circle fill="#3F3D56" cx="107.679" cy="418.074" r="7.063"/>
<path fill="#3F3D56" d="M107.679,448.857c0,0-1.009-21.702-21.694-19.179"/>
<linearGradient id="SVGID_1_" gradientUnits="userSpaceOnUse" x1="520.6741" y1="-72.9595" x2="520.6741" y2="-53.9087" gradientTransform="matrix(1 0 0 -1 -233.7791 355.275)">
	<stop  offset="0" style="stop-color:#808080;stop-opacity:0.25"/>
	<stop  offset="0.5351" style="stop-color:#808080;stop-opacity:0.12"/>
	<stop  offset="1" style="stop-color:#808080;stop-opacity:0.1"/>
</linearGradient>
<path fill="url(#SVGID_1_)" d="M313.342,426.292c0.184,0.652,0.39,1.3,0.61,1.943c-0.986-0.97-1.954-1.966-2.941-2.929
	c0.396,0.123,0.79,0.246,1.163,0.393C312.581,425.859,312.972,426.058,313.342,426.292z M308.563,423.053
	c-5.814-5.055-12.55-8.969-18.508-13.87c3.253,1.601,6.418,3.466,9.557,5.254c3.724,2.121,7.492,4.16,11.304,6.117
	C310.296,421.528,309.497,422.375,308.563,423.053z M311.05,410.324c0.093-0.095,0.185-0.19,0.278-0.285
	c0.003,0.718,0.008,1.39,0.017,1.999c-0.521-0.173-1.04-0.35-1.558-0.532C310.232,411.139,310.654,410.745,311.05,410.324
	L311.05,410.324z M259.838,424.01c2.396-2.706,4.477-5.675,6.204-8.85c2.308,4.032,6.059,6.94,9.249,10.317
	C270.151,424.799,265.003,424.239,259.838,424.01z"/>
<path fill="#F03F37" d="M94.707,461.392c0,6.435-3.825,8.682-8.544,8.682c-0.109,0-0.219-0.002-0.327-0.004
	c-0.219-0.005-0.436-0.015-0.65-0.03c-4.259-0.301-7.568-2.664-7.568-8.648c0-6.192,7.913-14.007,8.509-14.586l0.001-0.001
	c0.023-0.023,0.035-0.034,0.035-0.034S94.707,454.958,94.707,461.392z"/>
<path fill="#3F3D56" d="M85.852,469.089l3.125-4.366l-3.133,4.846l-0.008,0.501c-0.219-0.005-0.436-0.015-0.65-0.03l0.337-6.438
	l-0.002-0.05l0.006-0.009l0.032-0.609l-3.141-4.858l3.15,4.402l0.008,0.129l0.254-4.864l-2.689-5.02l2.722,4.166l0.265-10.085
	l0.001-0.035v0.034l-0.044,7.952l2.677-3.153l-2.688,3.838l-0.071,4.355l2.5-4.18l-2.51,4.821l-0.039,2.421l3.628-5.818
	l-3.642,6.662L85.852,469.089z"/>
<circle fill="#F03F37" cx="99.039" cy="406.497" r="3.695"/>
<path fill="#013954" d="M336.609,354.782c0,0,13.404-2.967,14.882,8.856c1.478,11.823-7.118,14.055-7.118,14.055l-5.444,1.463
	l-21.06-5.542l2.956-8.498L336.609,354.782z"/>
<circle fill="#2F2E41" cx="331.779" cy="337.321" r="18.113"/>
<polygon fill="#2F2E41" points="268.131,374.934 271.811,375.674 284.324,394.176 278.804,394.916 "/>
<path fill="#FBBEBE" d="M179.113,450.003c0.992,3.266,2.214,6.457,3.657,9.55c4.148-0.868,8.228-2.031,12.21-3.479
	c0.123-0.045-2.284-3.192-2.536-3.449c-0.953-0.97-2.188-2.104-3.448-2.652c-1.271-0.553-2.837-0.131-4.197-0.061
	C182.905,450.008,181.01,450.038,179.113,450.003z"/>
<path fill="#F03F37" d="M189.018,454.946c-2.074-0.649-3.335-2.736-4.179-4.749c-0.844-2.013-1.524-4.208-3.125-5.685
	c-0.613,0.029-1.107,0.528-1.41,1.064c-0.303,0.537-0.484,1.142-0.835,1.648c-0.667,0.964-1.841,1.431-2.68,2.248
	c-0.88,0.857-1.361,2.07-2.271,2.894c-1.144,1.035-2.761,1.292-4.261,1.634c-2.321,0.53-4.563,1.361-6.669,2.472
	c-0.776,0.468-1.605,0.839-2.47,1.107c-0.952,0.183-1.927,0.215-2.889,0.096l-6.635-0.473c-0.59-0.076-1.19-0.05-1.771,0.077
	c-1.364,0.383-2.211,1.905-2.111,3.326s0.984,2.693,2.1,3.57c1.155,0.826,2.429,1.472,3.779,1.914
	c5.78,2.182,11.73,3.881,17.79,5.082l0.003,1.313c4.214,2.072,8.846,3.151,13.542,3.153c0.347,0.026,0.695-0.034,1.014-0.176
	c0.466-0.253,0.681-0.797,0.853-1.3c1.592-4.655,2.523-9.51,2.767-14.424c0.118-1.246,0.021-2.502-0.286-3.715
	c-0.361-1.195,0.883-0.693-0.268-1.16"/>
<path fill="#2F2E41" d="M316.268,429.934c-19.671,1.178-39.113-4.58-58.81-5.195c-2.449-0.077-4.924-0.071-7.315,0.466
	c-2.529,0.568-4.887,1.713-7.239,2.807c-10.564,4.915-21.492,8.986-32.407,13.051l-12.538,4.67
	c-2.506,0.933-5.102,1.881-7.769,1.718c-1.196-0.073-2.663-0.254-3.336,0.743c-2.04,3.022-1.076,7.462,0.272,10.853
	c0.437,1.101,1.177,2.289,2.35,2.414c0.825,0.088,1.593-0.39,2.395-0.604c2.282-0.611,4.558,0.924,6.906,1.174
	c2.902,0.309,5.596-1.344,8.335-2.356c4.543-1.679,9.509-1.626,14.284-2.421c8.006-1.333,15.426-5.051,22.363-9.286
	c2.641-1.613,5.314-3.341,8.348-3.93c3.489-0.678,7.072,0.22,10.493,1.188c8.156,2.308,16.186,5.042,24.056,8.191
	c4.144,1.658,8.258,3.436,12.569,4.583c9.326,2.455,19.191,1.88,28.169-1.642c3.149-1.244,6.57-3.444,6.75-6.841
	c0.103-1.937-1.399-3.643-2.403-5.3c-0.644-1.062-1.288-2.125-1.989-3.15C326.359,436.107,322.243,429.576,316.268,429.934z"/>
<path d="M316.268,429.934c-19.671,1.178-39.113-4.58-58.81-5.195c-2.449-0.077-4.924-0.071-7.315,0.466
	c-2.529,0.568-4.887,1.713-7.239,2.807c-10.564,4.915-21.492,8.986-32.407,13.051l-12.538,4.67
	c-2.506,0.933-5.102,1.881-7.769,1.718c-1.196-0.073-2.663-0.254-3.336,0.743c-2.04,3.022-1.076,7.462,0.272,10.853
	c0.437,1.101,1.177,2.289,2.35,2.414c0.825,0.088,1.593-0.39,2.395-0.604c2.282-0.611,4.558,0.924,6.906,1.174
	c2.902,0.309,5.596-1.344,8.335-2.356c4.543-1.679,9.509-1.626,14.284-2.421c8.006-1.333,15.426-5.051,22.363-9.286
	c2.641-1.613,5.314-3.341,8.348-3.93c3.489-0.678,7.072,0.22,10.493,1.188c8.156,2.308,16.186,5.042,24.056,8.191
	c4.144,1.658,8.258,3.436,12.569,4.583c9.326,2.455,19.191,1.88,28.169-1.642c3.149-1.244,6.57-3.444,6.75-6.841
	c0.103-1.937-1.399-3.643-2.403-5.3c-0.644-1.062-1.288-2.125-1.989-3.15C326.359,436.107,322.243,429.576,316.268,429.934z"/>
<path fill="#FBBEBE" d="M216.88,450.961c3.079,1.051,6.185,2.017,9.318,2.898c1.754-2.88,5.035-4.883,5.783-8.175
	c0.046-0.143,0.047-0.297,0.001-0.441c-0.08-0.141-0.204-0.252-0.353-0.316c-2.244-1.243-4.736-1.974-7.297-2.138
	c-2.022-0.128-2.945,1.983-3.861,3.467C220.1,446.857,217.704,451.242,216.88,450.961z"/>
<path fill="#F03F37" d="M221.196,448.859c-1.818-0.381-3.598-1.359-4.526-2.976c-0.435-0.758-0.898-1.78-1.766-1.722
	c-0.806,0.053-1.176,1.015-1.358,1.806c-0.68,2.964-1.347,5.952-2.54,8.747s-2.956,5.42-5.444,7.151
	c-1.141,0.794-2.413,1.386-3.528,2.216c-1.002,0.746-1.876,1.681-2.983,2.257c-0.741,0.339-1.505,0.625-2.287,0.853
	c-1.151,0.401-2.25,0.936-3.276,1.594c-0.902,0.524-1.666,1.254-2.231,2.131c-0.563,0.899-0.633,2.022-0.184,2.983
	c0.481,0.788,1.275,1.332,2.183,1.495c0.896,0.155,1.811,0.178,2.714,0.068c3.587-0.264,7.169-0.584,10.751-0.903
	c1.515-0.098,3.022-0.307,4.506-0.627c0.785-0.189,1.554-0.44,2.335-0.642c1.34-0.345,2.713-0.545,4.096-0.596
	c0.402-0.034,0.806,0.003,1.195,0.109c0.83,0.271,1.419,1.097,2.275,1.264c0.55,0.053,1.104-0.021,1.62-0.217
	c2.581-0.706,5.293-0.687,7.964-0.831c1.177-0.064,2.554-0.287,3.094-1.34c0.673-1.314-0.443-2.782-0.888-4.191
	c-0.222-0.9-0.346-1.822-0.369-2.748c-0.205-2.29-0.878-4.514-1.975-6.534c-0.913-1.676-2.159-3.53-1.518-5.329
	c0.218-0.611,0.651-1.179,0.608-1.826C229.475,448.21,222.845,449.204,221.196,448.859z"/>
<path fill="#FBBEBE" d="M286.769,398.375c-3.486-1.536-6.278-4.31-7.838-7.785c-0.328-0.747-0.598-1.527-0.915-2.281
	c-1.031-2.505-2.636-4.733-4.684-6.505c-0.512-0.434-1.113-0.849-1.739-0.735c-0.6,0.109-1.073,0.703-1.279,1.37
	c-0.176,0.686-0.22,1.399-0.13,2.102c0.175,1.656,0.46,3.298,0.852,4.917l0.953,4.344c0.118,0.668,0.317,1.319,0.593,1.939
	c0.411,0.731,0.954,1.38,1.6,1.914c0.871,0.802,1.756,1.583,2.655,2.342c1.249,1.198,2.877,1.923,4.604,2.047
	c3.906,0.724,7.879,1.768,11.176,4.317c-0.037-0.028-0.014-2.913-0.071-3.244c-0.151-0.874-0.268-1.74-0.837-2.331
	C290.431,399.457,288.326,399.067,286.769,398.375z"/>
<path opacity="0.1" enable-background="new    " d="M286.769,398.375c-3.486-1.536-6.278-4.31-7.838-7.785
	c-0.328-0.747-0.598-1.527-0.915-2.281c-1.031-2.505-2.636-4.733-4.684-6.505c-0.512-0.434-1.113-0.849-1.739-0.735
	c-0.6,0.109-1.073,0.703-1.279,1.37c-0.176,0.686-0.22,1.399-0.13,2.102c0.175,1.656,0.46,3.298,0.852,4.917l0.953,4.344
	c0.118,0.668,0.317,1.319,0.593,1.939c0.411,0.731,0.954,1.38,1.6,1.914c0.871,0.802,1.756,1.583,2.655,2.342
	c1.249,1.198,2.877,1.923,4.604,2.047c3.906,0.724,7.879,1.768,11.176,4.317c-0.037-0.028-0.014-2.913-0.071-3.244
	c-0.151-0.874-0.268-1.74-0.837-2.331C290.431,399.457,288.326,399.067,286.769,398.375z"/>
<ellipse fill="#2F2E41" cx="326.83" cy="360.317" rx="4.784" ry="4.811"/>
<path fill="#2F2E41" d="M323.869,357.41c-1.299-0.144-2.741-0.251-3.782,0.544c-0.552,0.488-0.993,1.089-1.294,1.762
	c-1,1.878-1.987,3.792-2.49,5.861c-0.427,1.756-0.498,3.592-1.027,5.319c-0.981,3.205-3.495,5.91-3.782,9.25
	c-0.129,1.495,0.122,3.245-0.969,4.269c-0.269,0.227-0.557,0.43-0.86,0.61c-0.756,0.507-1.398,1.166-1.883,1.936
	c-0.408,0.649-0.723,1.394-1.337,1.849c-0.973,0.721-2.588,0.648-3.068,1.763c-0.493,1.146,0.758,2.422,0.468,3.636
	c-0.236,0.989-1.339,1.442-2.098,2.114c-0.973,0.861-1.418,2.16-1.823,3.398c-3.239,0.613-6.583-0.221-9.155-2.283
	c1.336,3.289,1.364,6.92,1.422,10.472c0.019,1.152-0.017,2.446-0.84,3.248c3.809,0.082,7.524,1.113,11.241,1.953
	c1.625,0.367,3.388,0.686,4.903-0.009c0.85-0.455,1.611-1.06,2.245-1.786c2.022-2.051,4.143-4.288,4.638-7.132
	c0.277-1.594,0.009-3.229,0.082-4.846c0.091-2.003,0.703-3.938,1.227-5.872c1.073-3.959,1.792-8.005,2.149-12.091
	c0.22-2.521,2.398-4.551,3.544-6.804c2.164-4.254,4.376-8.685,4.539-13.461C325.975,359.516,325.448,357.585,323.869,357.41z"/>
<path fill="#013954" d="M323.869,357.41c-1.299-0.144-2.741-0.251-3.782,0.544c-0.552,0.488-0.993,1.089-1.294,1.762
	c-1,1.878-1.987,3.792-2.49,5.861c-0.427,1.756-0.498,3.592-1.027,5.319c-0.981,3.205-3.495,5.91-3.782,9.25
	c-0.129,1.495,0.122,3.245-0.969,4.269c-0.269,0.227-0.557,0.43-0.86,0.61c-0.756,0.507-1.398,1.166-1.883,1.936
	c-0.408,0.649-0.723,1.394-1.337,1.849c-0.973,0.721-2.588,0.648-3.068,1.763c-0.493,1.146,0.758,2.422,0.468,3.636
	c-0.236,0.989-1.339,1.442-2.098,2.114c-0.973,0.861-1.418,2.16-1.823,3.398c-3.239,0.613-6.583-0.221-9.155-2.283
	c1.336,3.289,1.364,6.92,1.422,10.472c0.019,1.152-0.017,2.446-0.84,3.248c3.809,0.082,7.524,1.113,11.241,1.953
	c1.625,0.367,3.388,0.686,4.903-0.009c0.85-0.455,1.611-1.06,2.245-1.786c2.022-2.051,4.143-4.288,4.638-7.132
	c0.277-1.594,0.009-3.229,0.082-4.846c0.091-2.003,0.703-3.938,1.227-5.872c1.073-3.959,1.792-8.005,2.149-12.091
	c0.22-2.521,2.398-4.551,3.544-6.804c2.164-4.254,4.376-8.685,4.539-13.461C325.975,359.516,325.448,357.585,323.869,357.41z"/>
<path d="M319.388,434.076c-4.097-1.949-7.095-5.584-10.407-8.694c-6.324-5.938-14.057-10.142-20.706-15.709
	c-4.407-3.69-8.349-7.988-13.192-11.077c-4.266-2.716-9.101-4.41-14.129-4.951c-0.576-0.099-1.167-0.069-1.73,0.086
	c-0.635,0.281-1.189,0.719-1.608,1.272c-2.146,2.421-4.053,5.044-5.695,7.831c-8.428,14.307-20.399,26.336-30.317,39.641
	c-0.657,0.649-0.708,1.692-0.118,2.402l2.017,3.953c1.129,2.212,2.938,4.789,5.371,4.349c1.112-0.201,1.998-1.019,2.817-1.802
	l9.057-8.658l9.496-9.077c5.564-5.318,11.223-10.76,14.849-17.563c2.835,4.916,7.864,8.134,11.314,12.634
	c1.312,1.712,2.384,3.594,3.556,5.407c1.878,2.905,4.014,5.631,6.146,8.353l10.892,13.903c1.485,1.896,3.012,3.83,5.043,5.116
	c2.58,1.633,5.717,2.064,8.754,2.336c4.092,0.366,8.2,0.515,12.308,0.445c3.132-0.053,6.361-0.259,9.171-1.65
	c2.81-1.391,5.119-4.246,4.972-7.392c-0.076-1.636-0.787-3.17-1.57-4.607C331.79,443.488,326.706,437.558,319.388,434.076z"/>
<ellipse fill="#2F2E41" cx="329.774" cy="363.647" rx="3.68" ry="3.7"/>
<path fill="#FBBEBE" d="M328.961,360.867c0.897,1.584,0.898,3.556,0.404,5.31s-1.436,3.341-2.369,4.904
	c-0.918,1.539-1.846,3.091-3.077,4.39c5.68,0.272,11.187-1.956,16.2-4.656c4.033-2.172,8.057-4.853,10.21-8.913
	c-1.259,0.378-2.646,0.005-3.76-0.695c-1.082-0.754-2.052-1.658-2.881-2.684l-2.852-3.208c-0.67-0.699-1.258-1.471-1.754-2.302
	c-0.617-1.137-0.88-2.434-0.753-3.721c-1.133,1.186-2.399,2.237-3.774,3.132c-2.037,1.326-4.282,2.287-6.324,3.605
	c-0.724,0.467-2.333,1.219-1.919,2.165C326.717,359.116,328.387,359.853,328.961,360.867z"/>
<path opacity="0.1" enable-background="new    " d="M328.961,360.867c0.897,1.584,0.898,3.556,0.404,5.31s-1.436,3.341-2.369,4.904
	c-0.918,1.539-1.846,3.091-3.077,4.39c5.68,0.272,11.187-1.956,16.2-4.656c4.033-2.172,8.057-4.853,10.21-8.913
	c-1.259,0.378-2.646,0.005-3.76-0.695c-1.082-0.754-2.052-1.658-2.881-2.684l-2.852-3.208c-0.67-0.699-1.258-1.471-1.754-2.302
	c-0.617-1.137-0.88-2.434-0.753-3.721c-1.133,1.186-2.399,2.237-3.774,3.132c-2.037,1.326-4.282,2.287-6.324,3.605
	c-0.724,0.467-2.333,1.219-1.919,2.165C326.717,359.116,328.387,359.853,328.961,360.867z"/>
<path fill="#F03F37" d="M329.038,361.427c-1.068,1.795-1.296,3.915,0,5.551c0.161,0.204,0.761,1.467,1.019,1.479
	c0.251-0.021,0.483-0.138,0.648-0.328c1.379-1.261,2.39-2.87,3.602-4.294c1.212-1.425,2.741-2.723,4.583-3.01
	c2.224-0.346,4.371,0.832,6.317,1.969c0.809,0.472,1.647,0.973,2.156,1.762c0.41,0.741,0.652,1.562,0.708,2.407
	c0.672,5.064,0.657,10.192,0.641,15.301c-0.012,3.693-0.025,7.412-0.724,11.038c-0.361,1.874-0.903,3.713-1.16,5.605
	c-0.188,1.669-0.265,3.349-0.229,5.029l-0.005,7.031c-0.047,1.291,0.044,2.584,0.273,3.855c0.334,1.541,1.063,2.963,1.55,4.462
	c0.502,1.723,0.846,3.488,1.027,5.273l0.962,7.281c0.303,2.293,0.527,4.801-0.859,6.647c-0.627,0.834-1.451,1.503-2.086,2.33
	c-2.38,3.1-1.616,7.522-2.609,11.309c-0.784,2.773-2.394,5.241-4.616,7.076c-1.701,1.445-3.898,2.582-6.087,2.175
	c-2.956-0.549-4.732-3.631-5.538-6.543s-1.1-6.082-2.846-8.543c-1.426-2.009-3.635-3.273-5.633-4.707s-3.949-3.283-4.384-5.712
	c-0.19-1.061-0.072-2.154-0.184-3.225c-0.324-2.766-2.129-5.137-4.71-6.184c-1.513-0.589-3.382-0.799-4.234-2.187
	c2.2-1.24,3.661-3.531,4.43-5.947s0.926-4.978,1.078-7.51l0.506-8.46c0.226-3.781,0.328-7.528,1.993-10.926
	c0.744-1.519,1.671-2.941,2.445-4.444c1.025-2.109,1.9-4.288,2.619-6.52c1.207-3.467,2.414-6.934,3.49-10.444
	c0.513-1.673,1.005-3.377,1.919-4.867S327.327,361.748,329.038,361.427z"/>
<path fill="#002838" d="M310.251,416.391l2.238,0.081l0.477-3.383c0.063-0.677,0.222-1.341,0.474-1.973
	c0.369-0.668,0.8-1.299,1.287-1.886c2.204-3.113,2.043-7.246,2.589-11.027c0.728-5.043,2.835-9.765,4.919-14.41l4.346-9.686
	c0.867-1.644,1.281-3.489,1.202-5.347c0.038-1.497,0.482-6.946,0.521-8.443c0.014-0.554-1.222-0.246-1.472-0.74
	c-0.545-1.075-1.291,1.841-2.309,2.481s-1.58,1.799-2.012,2.925c-0.936,2.44-1.509,5.006-2.382,7.47
	c-0.873,2.464-2.093,4.885-4.057,6.6c-0.892,0.78-1.92,1.398-2.763,2.231c-2.704,2.674-2.967,6.896-3.062,10.708
	C310.19,394.257,309.752,416.391,310.251,416.391z"/>
<path fill="#013954" d="M342.48,357.387c-2.174,0.855-3.367,3.213-3.978,5.479c-0.611,2.266-0.86,4.681-2.028,6.713
	c-2.73,4.752-9.691,6.136-11.617,11.271c-0.63,1.68-0.603,3.523-0.773,5.311c-0.349,3.679-1.559,7.234-1.917,10.912
	c-0.277,2.85-0.038,5.722,0.201,8.575l2.433,29.017c0.351,4.191,0.342,8.694-0.729,12.76c2.463,0.48,5.024-0.163,7.309-1.204
	c2.285-1.042,4.371-2.472,6.571-3.686c3.782-2.087,7.953-3.565,11.266-6.345c0.599-0.467,1.113-1.035,1.518-1.678
	c0.664-1.147,0.718-2.535,1.034-3.824c0.286-1.028,0.651-2.033,1.09-3.005c1.212-2.924,2.269-5.911,3.165-8.947
	c0.616-2.015,1.102-4.067,1.455-6.144c0.266-1.654,0.409-3.325,0.552-4.994c0.176-2.613,0.696-5.192,1.544-7.67
	c2.116-5.909,3.314-12.108,3.553-18.38c0.072-0.906,0.01-1.818-0.183-2.706c-0.288-1.101-0.938-2.064-1.472-3.069
	c-1.011-1.904-1.618-4-2.572-5.934c-2.156-4.37-5.964-7.683-9.952-10.46C346.993,358.016,344.699,356.515,342.48,357.387z"/>
<path fill="#FBBEBE" d="M291.616,404.725c-1.684-0.98-3.367-2.036-4.634-3.521c-0.607-0.711-1.108-1.509-1.725-2.212
	c-1.501-1.709-3.629-2.768-5.828-3.322c-2.2-0.554-4.487-0.638-6.754-0.657c-1.517-0.013-3.071,0.009-4.491,0.545
	s-2.701,1.692-2.975,3.192c-0.33,1.805,0.849,3.564,2.265,4.721c1.317,1.075,2.867,1.828,4.527,2.197
	c1.354,0.237,2.72,0.397,4.092,0.479c8.056,0.844,15.243,5.228,22.303,9.221c6.2,3.507,12.521,6.785,18.962,9.835
	c0.255-1.929,0.362-3.875,0.318-5.82c-0.033-1.453-0.104-3.668-1.477-4.521c-1.599-0.994-4.232-1.222-6.035-1.813
	c-4.151-1.361-8.205-3.001-12.134-4.909C295.849,407.084,293.712,405.945,291.616,404.725z"/>
<ellipse fill="#FBBEBE" cx="326.83" cy="344.775" rx="14.353" ry="14.432"/>
<path fill="#013954" d="M346.584,373.75c-1.282,1.495-1.924,3.42-2.785,5.194c-1.772,3.65-4.552,6.782-5.944,10.595
	c-1.469,4.022-1.419,8.807-4.298,11.966c-0.501,0.549-1.105,1.079-1.249,1.81c-0.086,0.434,0.003,0.898-0.146,1.314
	c-0.413,1.148-2.291,1.206-2.642,2.374c-0.103,0.342-0.045,0.721-0.172,1.054c-0.288,0.756-1.286,0.871-1.953,1.324
	c-1.393,0.945-1.112,3.142-2.106,4.505c-0.787,1.078-2.269,1.439-3.586,1.256c-1.317-0.183-2.523-0.813-3.723-1.39
	c-0.412-0.232-0.868-0.375-1.339-0.42c-0.556,0.019-1.094,0.203-1.546,0.528c-2.651,1.686-3.896,5.025-3.878,8.179
	c0.018,3.154,1.102,6.193,2.212,9.143c0.151,0.498,0.4,0.961,0.731,1.362c0.879,0.93,2.41,0.779,3.577,0.262
	c1.167-0.517,2.228-1.331,3.483-1.558c2.221-0.402,4.391,1.124,6.645,0.998c1.651-0.092,3.112-1.052,4.483-1.98
	c2.189-1.482,4.418-3.001,6.028-5.104c0.986-1.288,1.707-2.756,2.567-4.132c1.105-1.689,2.315-3.306,3.625-4.841l8.276-10.13
	c1.989-2.165,3.358-4.825,3.964-7.702c0.787-2.7,1.579-5.431,1.715-8.241c0.112-2.313-0.224-4.623-0.601-6.907
	c-0.371-2.249-0.794-4.523-1.782-6.574C354.341,372.898,349.964,369.808,346.584,373.75z"/>
<circle fill="#2F2E41" cx="351.402" cy="313.472" r="18.113"/>
<path fill="#2F2E41" d="M367.025,328.471c-8.108,5.86-19.432,4.038-25.292-4.07c-1.193-1.65-2.099-3.489-2.68-5.441
	c1.248,9.926,10.307,16.961,20.233,15.713c9.926-1.248,16.961-10.307,15.713-20.233c-0.124-0.984-0.328-1.957-0.611-2.908
	C375.214,318.1,372.391,324.595,367.025,328.471z"/>
<circle fill="#2F2E41" cx="336.609" cy="340.34" r="13.283"/>
<ellipse fill="#2F2E41" cx="325.44" cy="335.359" rx="11.774" ry="9.207"/>
<ellipse transform="matrix(-0.6309 -0.7759 0.7759 -0.6309 263.9087 825.1107)" fill="#FBBEBE" cx="328.214" cy="349.782" rx="2.771" ry="1.847"/>
<path fill="#F03F37" d="M315.286,467.304c0,6.435-3.825,8.682-8.544,8.682c-0.109,0-0.219-0.002-0.327-0.004
	c-0.219-0.005-0.436-0.015-0.65-0.03c-4.259-0.301-7.568-2.664-7.568-8.648c0-6.192,7.913-14.007,8.509-14.586l0.001-0.001
	c0.023-0.023,0.035-0.034,0.035-0.034S315.286,460.869,315.286,467.304z"/>
<path fill="#3F3D56" d="M306.43,475.001l3.125-4.366l-3.133,4.846l-0.008,0.501c-0.219-0.005-0.436-0.015-0.65-0.03l0.337-6.438
	l-0.002-0.05l0.006-0.009l0.032-0.609l-3.141-4.858l3.15,4.402l0.008,0.129l0.254-4.864l-2.689-5.02l2.722,4.166l0.265-10.085
	l0.001-0.035v0.034l-0.044,7.952l2.677-3.153l-2.688,3.838l-0.071,4.355l2.5-4.18l-2.51,4.821l-0.039,2.421l3.628-5.818
	l-3.642,6.662L306.43,475.001z"/>
</svg>
